REM DIRINDEX 1\2\5,1\2\6,1\2\7,1\2\8,1\3\9,1\3\10,1\3\11,1\4\12,1\4\13,1\4\14,1\4\15,1\4\16
REM DIRNAME cjc034,folder01,folder02,folder03,folder04,folder05,folder06,folder07,folder08,folder09,folder10,folder11,folder12,folder13,folder14,folder15
TITLE ""
FILE "1200_sec02_0593_0603.mp3" MP3
  TRACK 01 AUDIO
    TITLE "0:"
    INDEX 01 00:00:00
  TRACK 02 AUDIO
    TITLE "12:cjc034_06021"
    INDEX 01 00:00:19
  TRACK 03 AUDIO
    TITLE "0:"
    INDEX 01 00:01:56
  TRACK 04 AUDIO
    TITLE "13:cjc034_06022"
    INDEX 01 00:02:12
  TRACK 05 AUDIO
    TITLE "0:"
    INDEX 01 00:03:55
  TRACK 06 AUDIO
    TITLE "14:cjc034_06023"
    INDEX 01 00:04:15
  TRACK 07 AUDIO
    TITLE "0:"
    INDEX 01 00:05:50
  TRACK 08 AUDIO
    TITLE "15:cjc034_06024"
    INDEX 01 00:06:14
  TRACK 09 AUDIO
    TITLE "0:"
    INDEX 01 00:09:57
  TRACK 10 AUDIO
    TITLE "12:cjc034_06025"
    INDEX 01 00:11:21
  TRACK 11 AUDIO
    TITLE "0:"
    INDEX 01 00:13:02
  TRACK 12 AUDIO
    TITLE "13:cjc034_06026"
    INDEX 01 00:13:33
  TRACK 13 AUDIO
    TITLE "0:"
    INDEX 01 00:14:54
  TRACK 14 AUDIO
    TITLE "14:cjc034_06027"
    INDEX 01 00:15:13
  TRACK 15 AUDIO
    TITLE "0:"
    INDEX 01 00:16:69
  TRACK 16 AUDIO
    TITLE "15:cjc034_06028"
    INDEX 01 00:17:23
  TRACK 17 AUDIO
    TITLE "0:"
    INDEX 01 00:23:53
  TRACK 18 AUDIO
    TITLE "12:cjc034_06029"
    INDEX 01 00:25:25
  TRACK 19 AUDIO
    TITLE "0:"
    INDEX 01 00:27:39
  TRACK 20 AUDIO
    TITLE "13:cjc034_06030"
    INDEX 01 00:27:71
  TRACK 21 AUDIO
    TITLE "0:"
    INDEX 01 00:29:07
  TRACK 22 AUDIO
    TITLE "14:cjc034_06031"
    INDEX 01 00:29:40
  TRACK 23 AUDIO
    TITLE "0:"
    INDEX 01 00:31:53
  TRACK 24 AUDIO
    TITLE "15:cjc034_06032"
    INDEX 01 00:32:15
  TRACK 25 AUDIO
    TITLE "0:"
    INDEX 01 00:36:46
  TRACK 26 AUDIO
    TITLE "12:cjc034_06033"
    INDEX 01 00:38:02
  TRACK 27 AUDIO
    TITLE "0:"
    INDEX 01 00:39:41
  TRACK 28 AUDIO
    TITLE "13:cjc034_06034"
    INDEX 01 00:40:01
  TRACK 29 AUDIO
    TITLE "0:"
    INDEX 01 00:41:12
  TRACK 30 AUDIO
    TITLE "14:cjc034_06035"
    INDEX 01 00:41:45
  TRACK 31 AUDIO
    TITLE "0:"
    INDEX 01 00:43:09
  TRACK 32 AUDIO
    TITLE "15:cjc034_06036"
    INDEX 01 00:43:42
  TRACK 33 AUDIO
    TITLE "0:"
    INDEX 01 00:47:58
  TRACK 34 AUDIO
    TITLE "12:cjc034_06037"
    INDEX 01 00:49:18
  TRACK 35 AUDIO
    TITLE "0:"
    INDEX 01 00:50:68
  TRACK 36 AUDIO
    TITLE "13:cjc034_06038"
    INDEX 01 00:51:28
  TRACK 37 AUDIO
    TITLE "0:"
    INDEX 01 00:54:62
  TRACK 38 AUDIO
    TITLE "14:cjc034_06039"
    INDEX 01 00:55:20
  TRACK 39 AUDIO
    TITLE "0:"
    INDEX 01 00:56:72
  TRACK 40 AUDIO
    TITLE "15:cjc034_06040"
    INDEX 01 00:57:33
  TRACK 41 AUDIO
    TITLE "0:"
    INDEX 01 01:00:43
  TRACK 42 AUDIO
    TITLE "12:cjc034_06041"
    INDEX 01 01:02:03
  TRACK 43 AUDIO
    TITLE "0:"
    INDEX 01 01:06:14
  TRACK 44 AUDIO
    TITLE "13:cjc034_06042"
    INDEX 01 01:06:47
  TRACK 45 AUDIO
    TITLE "0:"
    INDEX 01 01:08:09
  TRACK 46 AUDIO
    TITLE "14:cjc034_06043"
    INDEX 01 01:08:38
  TRACK 47 AUDIO
    TITLE "0:"
    INDEX 01 01:12:50
  TRACK 48 AUDIO
    TITLE "15:cjc034_06044"
    INDEX 01 01:13:06
  TRACK 49 AUDIO
    TITLE "0:"
    INDEX 01 01:17:02
  TRACK 50 AUDIO
    TITLE "12:cjc034_06045"
    INDEX 01 01:18:33
  TRACK 51 AUDIO
    TITLE "0:"
    INDEX 01 01:22:01
  TRACK 52 AUDIO
    TITLE "13:cjc034_06046"
    INDEX 01 01:22:33
  TRACK 53 AUDIO
    TITLE "0:"
    INDEX 01 01:24:06
  TRACK 54 AUDIO
    TITLE "14:cjc034_06047"
    INDEX 01 01:24:37
  TRACK 55 AUDIO
    TITLE "0:"
    INDEX 01 01:28:02
  TRACK 56 AUDIO
    TITLE "15:cjc034_06048"
    INDEX 01 01:28:37
  TRACK 57 AUDIO
    TITLE "0:"
    INDEX 01 01:32:68
  TRACK 58 AUDIO
    TITLE "12:cjc034_06049"
    INDEX 01 01:34:24
  TRACK 59 AUDIO
    TITLE "0:"
    INDEX 01 01:35:55
  TRACK 60 AUDIO
    TITLE "13:cjc034_06050"
    INDEX 01 01:36:13
  TRACK 61 AUDIO
    TITLE "0:"
    INDEX 01 01:37:34
  TRACK 62 AUDIO
    TITLE "14:cjc034_06051"
    INDEX 01 01:37:66
  TRACK 63 AUDIO
    TITLE "0:"
    INDEX 01 01:39:21
  TRACK 64 AUDIO
    TITLE "15:cjc034_06052"
    INDEX 01 01:39:53
  TRACK 65 AUDIO
    TITLE "0:"
    INDEX 01 01:44:30
  TRACK 66 AUDIO
    TITLE "12:cjc034_06053"
    INDEX 01 01:45:63
  TRACK 67 AUDIO
    TITLE "0:"
    INDEX 01 01:47:29
  TRACK 68 AUDIO
    TITLE "13:cjc034_06054"
    INDEX 01 01:47:68
  TRACK 69 AUDIO
    TITLE "0:"
    INDEX 01 01:49:37
  TRACK 70 AUDIO
    TITLE "14:cjc034_06055"
    INDEX 01 01:49:67
  TRACK 71 AUDIO
    TITLE "0:"
    INDEX 01 01:51:36
  TRACK 72 AUDIO
    TITLE "15:cjc034_06056"
    INDEX 01 01:51:74
  TRACK 73 AUDIO
    TITLE "0:"
    INDEX 01 01:56:61
  TRACK 74 AUDIO
    TITLE "12:cjc034_06057"
    INDEX 01 01:58:21
  TRACK 75 AUDIO
    TITLE "0:"
    INDEX 01 02:00:22
  TRACK 76 AUDIO
    TITLE "13:cjc034_06058"
    INDEX 01 02:00:51
  TRACK 77 AUDIO
    TITLE "0:"
    INDEX 01 02:02:22
  TRACK 78 AUDIO
    TITLE "14:cjc034_06059"
    INDEX 01 02:02:54
  TRACK 79 AUDIO
    TITLE "0:"
    INDEX 01 02:04:53
  TRACK 80 AUDIO
    TITLE "15:cjc034_06060"
    INDEX 01 02:05:11
  TRACK 81 AUDIO
    TITLE "0:"
    INDEX 01 02:09:19
  TRACK 82 AUDIO
    TITLE "12:cjc034_06061"
    INDEX 01 02:10:51
  TRACK 83 AUDIO
    TITLE "0:"
    INDEX 01 02:12:17
  TRACK 84 AUDIO
    TITLE "13:cjc034_06062"
    INDEX 01 02:12:48
  TRACK 85 AUDIO
    TITLE "0:"
    INDEX 01 02:14:61
  TRACK 86 AUDIO
    TITLE "14:cjc034_06063"
    INDEX 01 02:15:21
  TRACK 87 AUDIO
    TITLE "0:"
    INDEX 01 02:16:62
  TRACK 88 AUDIO
    TITLE "15:cjc034_06064"
    INDEX 01 02:17:20
  TRACK 89 AUDIO
    TITLE "0:"
    INDEX 01 02:20:32
